<svg viewBox="0 0 116 25" fill="none" xmlns="http://www.w3.org/2000/svg">
<g clip-path="url(#clip0_14_1284)">
<path d="M22.6985 9.41406H22.1678C21.9954 8.87451 21.7778 8.35039 21.5172 7.84683L21.8931 7.47095C22.8045 6.56055 22.7801 5.10156 21.8934 4.21582L20.7845 3.10693C19.8993 2.22056 18.44 2.19487 17.5293 3.10659L17.1532 3.48276C16.6496 3.22222 16.1254 3.00464 15.5859 2.83223V2.30142C15.5859 1.03242 14.5535 0 13.2845 0H11.7155C10.4465 0 9.41406 1.03242 9.41406 2.30142V2.83223C8.87456 3.00459 8.35039 3.22217 7.84683 3.48276L7.471 3.10693C6.56216 2.19702 5.10293 2.21836 4.21592 3.10664L3.10688 4.21558C2.22056 5.10093 2.19492 6.56001 3.10659 7.4707L3.48276 7.84687C3.22217 8.35044 3.00464 8.87451 2.83223 9.41411H2.30146C1.03247 9.41406 0 10.4465 0 11.7155V13.2845C0 14.5535 1.03247 15.5859 2.30146 15.5859H2.83223C3.00464 16.1255 3.22217 16.6496 3.48276 17.1532L3.10688 17.5291C2.19551 18.4395 2.21992 19.8984 3.10659 20.7842L4.21553 21.8931C5.10073 22.7794 6.56001 22.8051 7.47065 21.8934L7.84683 21.5172C8.35039 21.7778 8.87456 21.9954 9.41406 22.1678V22.6986C9.41406 23.9676 10.4465 25 11.7155 25H13.2845C14.5535 25 15.586 23.9676 15.586 22.6986V22.1678C16.1255 21.9954 16.6497 21.7778 17.1532 21.5172L17.5291 21.8931C18.4379 22.803 19.8971 22.7816 20.7841 21.8934L21.8932 20.7844C22.7795 19.899 22.8051 18.4399 21.8935 17.5292L21.5173 17.1531C21.7779 16.6495 21.9954 16.1254 22.1678 15.5858H22.6986C23.9676 15.5858 25 14.5534 25 13.2844V11.7154C25 10.4465 23.9675 9.41406 22.6985 9.41406ZM12.5 17.9395C9.50064 17.9395 7.06055 15.4993 7.06055 12.5C7.06055 9.50068 9.50064 7.06055 12.5 7.06055C15.4994 7.06055 17.9395 9.50068 17.9395 12.5C17.9395 15.4993 15.4994 17.9395 12.5 17.9395Z" fill="#B1B1B1"/>
</g>
<path d="M62.5781 10.348H64.483C64.4254 8.25142 62.5717 6.73011 59.9126 6.73011C57.2855 6.73011 55.272 8.23224 55.272 10.4886C55.272 12.3104 56.576 13.3778 58.679 13.9467L60.2259 14.3686C61.6257 14.7393 62.706 15.1996 62.706 16.3629C62.706 17.6413 61.4851 18.4851 59.804 18.4851C58.2827 18.4851 57.017 17.8075 56.902 16.3821H54.9205C55.0483 18.7536 56.8828 20.2173 59.8168 20.2173C62.8913 20.2173 64.6619 18.6001 64.6619 16.3821C64.6619 14.0234 62.5589 13.1094 60.897 12.7003L59.6186 12.3679C58.5959 12.1058 57.2344 11.6264 57.2408 10.3736C57.2408 9.26136 58.2571 8.43679 59.8679 8.43679C61.37 8.43679 62.4375 9.13991 62.5781 10.348ZM71.1003 20.1982C73.2417 20.1982 74.7566 19.1435 75.1912 17.5455L73.3823 17.2195C73.0371 18.1463 72.2061 18.6193 71.1195 18.6193C69.4831 18.6193 68.3837 17.5582 68.3326 15.6662H75.3127V14.9886C75.3127 11.4411 73.1905 10.054 70.9661 10.054C68.2303 10.054 66.4277 12.1378 66.4277 15.1548C66.4277 18.2038 68.2047 20.1982 71.1003 20.1982ZM68.339 14.2344C68.4157 12.8409 69.4256 11.6328 70.9789 11.6328C72.4618 11.6328 73.4334 12.7322 73.4398 14.2344H68.339ZM82.0163 10.1818H80.0028V7.82955H78.0916V10.1818H76.6534V11.7159H78.0916V17.5135C78.0852 19.2969 79.4467 20.1598 80.9553 20.1278C81.5625 20.1214 81.9716 20.0064 82.1953 19.9233L81.8501 18.3445C81.7223 18.37 81.4858 18.4276 81.179 18.4276C80.5589 18.4276 80.0028 18.223 80.0028 17.1172V11.7159H82.0163V10.1818ZM88.7136 10.1818H86.7001V7.82955H84.7889V10.1818H83.3507V11.7159H84.7889V17.5135C84.7825 19.2969 86.144 20.1598 87.6525 20.1278C88.2598 20.1214 88.6689 20.0064 88.8926 19.9233L88.5474 18.3445C88.4196 18.37 88.1831 18.4276 87.8762 18.4276C87.2562 18.4276 86.7001 18.223 86.7001 17.1172V11.7159H88.7136V10.1818ZM90.8278 20H92.739V10.1818H90.8278V20ZM91.793 8.6669C92.4513 8.6669 93.0011 8.15554 93.0011 7.52912C93.0011 6.9027 92.4513 6.38494 91.793 6.38494C91.1282 6.38494 90.5849 6.9027 90.5849 7.52912C90.5849 8.15554 91.1282 8.6669 91.793 8.6669ZM97.2214 14.1705C97.2214 12.6044 98.1802 11.7095 99.5098 11.7095C100.807 11.7095 101.594 12.5597 101.594 13.9851V20H103.505V13.755C103.505 11.326 102.169 10.054 100.162 10.054C98.6852 10.054 97.72 10.7379 97.2662 11.7798H97.1447V10.1818H95.3102V20H97.2214V14.1705ZM110.184 23.8864C112.684 23.8864 114.614 22.7422 114.614 20.2173V10.1818H112.741V11.7734H112.601C112.262 11.1662 111.584 10.054 109.756 10.054C107.385 10.054 105.64 11.9268 105.64 15.0526C105.64 18.1847 107.423 19.853 109.743 19.853C111.546 19.853 112.243 18.8366 112.588 18.2102H112.709V20.1406C112.709 21.6811 111.655 22.3459 110.204 22.3459C108.612 22.3459 107.992 21.5469 107.653 20.9844L106.01 21.6619C106.528 22.8636 107.839 23.8864 110.184 23.8864ZM110.165 18.2678C108.459 18.2678 107.57 16.9574 107.57 15.027C107.57 13.1413 108.439 11.6776 110.165 11.6776C111.834 11.6776 112.729 13.0391 112.729 15.027C112.729 17.0533 111.814 18.2678 110.165 18.2678Z" fill="#B1B1B1"/>
<defs>
<clipPath id="clip0_14_1284">
<rect width="25" height="25" fill="white"/>
</clipPath>
</defs>
</svg>
